<svg width="738" height="63" viewBox="0 0 738 63" fill="none" xmlns="http://www.w3.org/2000/svg">
<path d="M43.5955 30.7057V2.54512H62.807V60.0977H43.5955L12.8077 24.466V14.6139L46.5511 53.6938H56.4032V8.94897H49.9993V47.9468L16.2559 8.94897H6.40386V53.6938H12.8077V34.3181L19.2116 41.7071V60.0977H7.62939e-06V2.54512H19.2116L43.5955 30.7057ZM105.664 0C122.905 0 136.944 14.0392 136.944 31.3625C136.944 48.6857 122.905 62.6428 105.664 62.6428C88.3403 62.6428 74.3011 48.6857 74.3011 31.3625C74.3011 14.0392 88.3403 0 105.664 0ZM105.664 56.3211C119.457 56.3211 130.622 45.1554 130.622 31.3625C130.622 17.5695 119.457 6.32175 105.664 6.32175C91.7886 6.32175 80.6229 17.5695 80.6229 31.3625C80.6229 45.1554 91.7886 56.3211 105.664 56.3211ZM105.664 12.6435C115.926 12.6435 124.3 21.0999 124.3 31.3625C124.3 41.625 115.926 49.9993 105.664 49.9993C95.401 49.9993 86.9446 41.625 86.9446 31.3625C86.9446 21.0999 95.401 12.6435 105.664 12.6435ZM105.664 43.6776C112.478 43.6776 117.979 38.1768 117.979 31.3625C117.979 24.466 112.478 18.9653 105.664 18.9653C98.7671 18.9653 93.2664 24.466 93.2664 31.3625C93.2664 38.1768 98.7671 43.6776 105.664 43.6776ZM186.451 2.54512H208.618C207.386 4.59764 199.094 19.0474 191.13 32.9224C186.451 41.0503 181.278 50.1635 175.449 60.0977H168.06C168.717 59.0304 176.024 46.1406 183.249 33.6613C187.436 26.3543 192.198 18.0622 197.534 8.94897H190.145C179.801 26.6827 173.807 37.2737 164.366 53.6938C163.791 52.7086 134.645 2.62722 134.727 2.54512H156.894L168.06 21.7567L164.366 28.1605L153.2 8.94897H145.811C147.453 11.5762 162.806 38.341 164.366 40.8861L180.457 12.9719L186.451 2.54512ZM231.606 40.8861L235.301 34.4823L246.466 53.6938H253.855C252.213 51.0666 236.614 24.3839 235.301 21.7567L219.209 49.6709L213.215 60.0977H191.048C192.28 58.0452 200.572 43.5955 208.536 29.7204C213.215 21.5925 218.388 12.4793 224.217 2.54512H231.606L216.335 28.9815L202.132 53.6938H209.521C219.619 35.878 225.941 25.3691 235.301 8.94897C235.875 9.93418 264.775 60.0156 264.939 60.0977H242.772L231.606 40.8861ZM356.235 35.1391L374.625 2.54512H394.986V60.0977H375.775V38.5873L363.542 60.0977H348.846L330.209 27.4216V15.3528L352.622 53.6938H359.847L382.179 15.3528V53.6938H388.583V8.94897H378.32L356.071 47.3721L334.15 8.94897H323.887V53.6938H330.209V41.625L336.613 52.6265V60.0977H317.483V2.54512H337.844L356.235 35.1391ZM431.85 0C449.091 0 463.13 14.0392 463.13 31.3625C463.13 48.6857 449.091 62.6428 431.85 62.6428C414.526 62.6428 400.487 48.6857 400.487 31.3625C400.487 14.0392 414.526 0 431.85 0ZM431.85 56.3211C445.643 56.3211 456.808 45.1554 456.808 31.3625C456.808 17.5695 445.643 6.32175 431.85 6.32175C417.975 6.32175 406.809 17.5695 406.809 31.3625C406.809 45.1554 417.975 56.3211 431.85 56.3211ZM431.85 12.6435C442.112 12.6435 450.486 21.0999 450.486 31.3625C450.486 41.625 442.112 49.9993 431.85 49.9993C421.587 49.9993 413.131 41.625 413.131 31.3625C413.131 21.0999 421.587 12.6435 431.85 12.6435ZM431.85 43.6776C438.664 43.6776 444.165 38.1768 444.165 31.3625C444.165 24.466 438.664 18.9653 431.85 18.9653C424.953 18.9653 419.452 24.466 419.452 31.3625C419.452 38.1768 424.953 43.6776 431.85 43.6776ZM467.317 21.7567V2.54512H530.124V21.7567H514.689V15.3528H523.72V8.94897H473.721V15.3528H495.56L495.478 53.6938H501.882V15.3528H508.285V60.0977H489.074V21.7567H467.317ZM566.166 0C583.407 0 597.447 14.0392 597.447 31.3625C597.447 48.6857 583.407 62.6428 566.166 62.6428C548.843 62.6428 534.804 48.6857 534.804 31.3625C534.804 14.0392 548.843 0 566.166 0ZM566.166 56.3211C579.959 56.3211 591.125 45.1554 591.125 31.3625C591.125 17.5695 579.959 6.32175 566.166 6.32175C552.291 6.32175 541.126 17.5695 541.126 31.3625C541.126 45.1554 552.291 56.3211 566.166 56.3211ZM566.166 12.6435C576.429 12.6435 584.803 21.0999 584.803 31.3625C584.803 41.625 576.429 49.9993 566.166 49.9993C555.904 49.9993 547.447 41.625 547.447 31.3625C547.447 21.0999 555.904 12.6435 566.166 12.6435ZM566.166 43.6776C572.981 43.6776 578.481 38.1768 578.481 31.3625C578.481 24.466 572.981 18.9653 566.166 18.9653C559.27 18.9653 553.769 24.466 553.769 31.3625C553.769 38.1768 559.27 43.6776 566.166 43.6776ZM666.904 60.0977H644.737L637.266 47.2079H622.898V60.0977H603.768V28.0784L650.73 28.1605C656.067 28.1605 660.336 23.8092 660.336 18.5548C660.336 13.2182 656.067 8.94897 650.73 8.94897H610.172V15.3528H650.73C652.454 15.4349 653.768 16.8306 653.768 18.5548C653.768 20.2789 652.454 21.6746 650.73 21.7567H650.648H650.566H603.768V2.54512H650.73C659.597 2.54512 666.74 9.68788 666.74 18.5548C666.74 27.3395 659.597 34.5644 650.73 34.5644L610.172 34.4823V53.6938H616.576V40.804H640.96C643.587 45.5659 648.021 52.8728 648.431 53.6938H655.82C655.163 52.7907 651.387 46.0585 648.349 40.804H655.738C658.448 45.4838 661.157 50.3277 663.374 53.9401L666.904 60.0977ZM722.322 34.5644C689.728 34.5644 689.235 34.4823 688.825 34.4823H688.661C680.45 33.8255 674.129 26.8469 674.129 18.5548C674.129 9.68788 681.271 2.54512 690.138 2.54512H724.621C731.517 2.54512 737.1 8.12797 737.1 15.1065V21.7567H690.385H690.303H690.22C688.332 21.6746 687.101 20.2789 687.101 18.5548C687.101 16.8306 688.414 15.4349 690.138 15.3528H730.696V15.1886C730.696 11.6583 727.987 8.94897 724.456 8.94897H690.138C684.884 8.94897 680.533 13.2182 680.533 18.5548C680.533 23.4808 684.227 27.4216 688.907 28.0784C721.665 28.0784 721.993 28.1605 722.568 28.1605C730.778 28.8173 737.1 35.878 737.1 44.0881C737.1 52.9549 729.957 60.0977 721.172 60.0977H686.608C679.712 60.0977 674.129 54.5148 674.129 47.6184V40.8861H721.172C725.195 41.1324 725.195 47.0437 721.172 47.29H680.533V47.4542C680.533 50.9845 683.242 53.6938 686.772 53.6938H721.172C726.345 53.6938 730.778 49.5888 730.778 44.0881C730.778 39.162 727.084 35.2212 722.322 34.5644Z" fill="black"/>
</svg>
