<svg width="420" height="135" viewBox="0 0 420 135" fill="none" xmlns="http://www.w3.org/2000/svg">
<g clip-path="url(#clip0_16_30)">
<mask id="mask0_16_30" style="mask-type:luminance" maskUnits="userSpaceOnUse" x="0" y="0" width="738" height="63">
<path d="M737.1 0H0V62.6428H737.1V0Z" fill="white"/>
</mask>
<g mask="url(#mask0_16_30)">
<path d="M43.5955 30.7057V2.54512H62.807V60.0977H43.5955L12.8077 24.466V14.6139L46.5511 53.6938H56.4032V8.94897H49.9993V47.9468L16.2559 8.94897H6.40385V53.6938H12.8077V34.3181L19.2116 41.7071V60.0977H0V2.54512H19.2116L43.5955 30.7057ZM105.664 0C122.905 0 136.944 14.0392 136.944 31.3625C136.944 48.6857 122.905 62.6428 105.664 62.6428C88.3403 62.6428 74.3011 48.6857 74.3011 31.3625C74.3011 14.0392 88.3403 0 105.664 0ZM105.664 56.3211C119.456 56.3211 130.622 45.1554 130.622 31.3625C130.622 17.5695 119.456 6.32175 105.664 6.32175C91.7886 6.32175 80.6229 17.5695 80.6229 31.3625C80.6229 45.1554 91.7886 56.3211 105.664 56.3211ZM105.664 12.6435C115.926 12.6435 124.3 21.0999 124.3 31.3625C124.3 41.625 115.926 49.9993 105.664 49.9993C95.401 49.9993 86.9446 41.625 86.9446 31.3625C86.9446 21.0999 95.401 12.6435 105.664 12.6435ZM105.664 43.6776C112.478 43.6776 117.979 38.1768 117.979 31.3625C117.979 24.466 112.478 18.9653 105.664 18.9653C98.7671 18.9653 93.2664 24.466 93.2664 31.3625C93.2664 38.1768 98.7671 43.6776 105.664 43.6776ZM186.451 2.54512H208.618C207.386 4.59764 199.094 19.0474 191.13 32.9224C186.451 41.0503 181.278 50.1635 175.449 60.0977H168.06C168.717 59.0304 176.024 46.1406 183.249 33.6613C187.436 26.3543 192.198 18.0622 197.534 8.94897H190.145C179.801 26.6827 173.807 37.2737 164.366 53.6938C163.791 52.7086 134.645 2.62722 134.727 2.54512H156.894L168.06 21.7567L164.366 28.1605L153.2 8.94897H145.811C147.453 11.5762 162.806 38.341 164.366 40.8861L180.457 12.9719L186.451 2.54512ZM231.606 40.8861L235.301 34.4823L246.466 53.6938H253.855C252.213 51.0666 236.614 24.3839 235.301 21.7567L219.209 49.6709L213.215 60.0977H191.048C192.28 58.0452 200.572 43.5955 208.536 29.7204C213.215 21.5925 218.388 12.4793 224.217 2.54512H231.606L216.335 28.9815L202.132 53.6938H209.521C219.619 35.878 225.941 25.3691 235.301 8.94897C235.875 9.93418 264.775 60.0156 264.939 60.0977H242.772L231.606 40.8861ZM356.235 35.1391L374.625 2.54512H394.986V60.0977H375.775V38.5873L363.542 60.0977H348.846L330.209 27.4216V15.3528L352.622 53.6938H359.847L382.179 15.3528V53.6938H388.583V8.94897H378.32L356.071 47.3721L334.15 8.94897H323.887V53.6938H330.209V41.625L336.613 52.6265V60.0977H317.483V2.54512H337.844L356.235 35.1391ZM431.85 0C449.091 0 463.13 14.0392 463.13 31.3625C463.13 48.6857 449.091 62.6428 431.85 62.6428C414.526 62.6428 400.487 48.6857 400.487 31.3625C400.487 14.0392 414.526 0 431.85 0ZM431.85 56.3211C445.643 56.3211 456.808 45.1554 456.808 31.3625C456.808 17.5695 445.643 6.32175 431.85 6.32175C417.975 6.32175 406.809 17.5695 406.809 31.3625C406.809 45.1554 417.975 56.3211 431.85 56.3211ZM431.85 12.6435C442.112 12.6435 450.486 21.0999 450.486 31.3625C450.486 41.625 442.112 49.9993 431.85 49.9993C421.587 49.9993 413.131 41.625 413.131 31.3625C413.131 21.0999 421.587 12.6435 431.85 12.6435ZM431.85 43.6776C438.664 43.6776 444.165 38.1768 444.165 31.3625C444.165 24.466 438.664 18.9653 431.85 18.9653C424.953 18.9653 419.452 24.466 419.452 31.3625C419.452 38.1768 424.953 43.6776 431.85 43.6776ZM467.317 21.7567V2.54512H530.124V21.7567H514.689V15.3528H523.72V8.94897H473.721V15.3528H495.56L495.478 53.6938H501.882V15.3528H508.285V60.0977H489.074V21.7567H467.317ZM566.166 0C583.407 0 597.447 14.0392 597.447 31.3625C597.447 48.6857 583.407 62.6428 566.166 62.6428C548.843 62.6428 534.804 48.6857 534.804 31.3625C534.804 14.0392 548.843 0 566.166 0ZM566.166 56.3211C579.959 56.3211 591.125 45.1554 591.125 31.3625C591.125 17.5695 579.959 6.32175 566.166 6.32175C552.291 6.32175 541.126 17.5695 541.126 31.3625C541.126 45.1554 552.291 56.3211 566.166 56.3211ZM566.166 12.6435C576.429 12.6435 584.803 21.0999 584.803 31.3625C584.803 41.625 576.429 49.9993 566.166 49.9993C555.904 49.9993 547.447 41.625 547.447 31.3625C547.447 21.0999 555.904 12.6435 566.166 12.6435ZM566.166 43.6776C572.981 43.6776 578.481 38.1768 578.481 31.3625C578.481 24.466 572.981 18.9653 566.166 18.9653C559.27 18.9653 553.769 24.466 553.769 31.3625C553.769 38.1768 559.27 43.6776 566.166 43.6776ZM666.904 60.0977H644.737L637.266 47.2079H622.898V60.0977H603.768V28.0784L650.73 28.1605C656.067 28.1605 660.336 23.8092 660.336 18.5548C660.336 13.2182 656.067 8.94897 650.73 8.94897H610.172V15.3528H650.73C652.454 15.4349 653.768 16.8306 653.768 18.5548C653.768 20.2789 652.454 21.6746 650.73 21.7567H650.648H650.566H603.768V2.54512H650.73C659.597 2.54512 666.74 9.68788 666.74 18.5548C666.74 27.3395 659.597 34.5644 650.73 34.5644L610.172 34.4823V53.6938H616.576V40.804H640.96C643.587 45.5659 648.021 52.8728 648.431 53.6938H655.82C655.163 52.7907 651.387 46.0585 648.349 40.804H655.738C658.448 45.4838 661.157 50.3277 663.374 53.9401L666.904 60.0977ZM722.322 34.5644C689.728 34.5644 689.235 34.4823 688.825 34.4823H688.661C680.45 33.8255 674.129 26.8469 674.129 18.5548C674.129 9.68788 681.271 2.54512 690.138 2.54512H724.621C731.517 2.54512 737.1 8.12797 737.1 15.1065V21.7567H690.385H690.303H690.22C688.332 21.6746 687.101 20.2789 687.101 18.5548C687.101 16.8306 688.414 15.4349 690.138 15.3528H730.696V15.1886C730.696 11.6583 727.987 8.94897 724.456 8.94897H690.138C684.884 8.94897 680.533 13.2182 680.533 18.5548C680.533 23.4808 684.227 27.4216 688.907 28.0784C721.665 28.0784 721.993 28.1605 722.568 28.1605C730.778 28.8173 737.1 35.878 737.1 44.0881C737.1 52.9549 729.957 60.0977 721.172 60.0977H686.608C679.712 60.0977 674.129 54.5148 674.129 47.6184V40.8861H721.172C725.195 41.1324 725.195 47.0437 721.172 47.29H680.533V47.4542C680.533 50.9845 683.242 53.6938 686.772 53.6938H721.172C726.345 53.6938 730.778 49.5888 730.778 44.0881C730.778 39.162 727.084 35.2212 722.322 34.5644Z" fill="black"/>
</g>
</g>
<g clip-path="url(#clip1_16_30)">
<mask id="mask1_16_30" style="mask-type:luminance" maskUnits="userSpaceOnUse" x="-317" y="72" width="738" height="63">
<path d="M420.1 72H-317V134.643H420.1V72Z" fill="white"/>
</mask>
<g mask="url(#mask1_16_30)">
<path d="M-273.405 102.706V74.5451H-254.193V132.098H-273.405L-304.192 96.466V86.6139L-270.449 125.694H-260.597V80.949H-267.001V119.947L-300.744 80.949H-310.596V125.694H-304.192V106.318L-297.788 113.707V132.098H-317V74.5451H-297.788L-273.405 102.706ZM-211.336 72C-194.095 72 -180.056 86.0392 -180.056 103.362C-180.056 120.686 -194.095 134.643 -211.336 134.643C-228.66 134.643 -242.699 120.686 -242.699 103.362C-242.699 86.0392 -228.66 72 -211.336 72ZM-211.336 128.321C-197.544 128.321 -186.378 117.155 -186.378 103.362C-186.378 89.5695 -197.544 78.3218 -211.336 78.3218C-225.211 78.3218 -236.377 89.5695 -236.377 103.362C-236.377 117.155 -225.211 128.321 -211.336 128.321ZM-211.336 84.6435C-201.074 84.6435 -192.7 93.0999 -192.7 103.362C-192.7 113.625 -201.074 121.999 -211.336 121.999C-221.599 121.999 -230.055 113.625 -230.055 103.362C-230.055 93.0999 -221.599 84.6435 -211.336 84.6435ZM-211.336 115.678C-204.522 115.678 -199.021 110.177 -199.021 103.362C-199.021 96.466 -204.522 90.9653 -211.336 90.9653C-218.233 90.9653 -223.734 96.466 -223.734 103.362C-223.734 110.177 -218.233 115.678 -211.336 115.678ZM-130.549 74.5451H-108.382C-109.614 76.5976 -117.906 91.0474 -125.87 104.922C-130.549 113.05 -135.722 122.163 -141.551 132.098H-148.94C-148.283 131.03 -140.976 118.141 -133.751 105.661C-129.564 98.3543 -124.802 90.0622 -119.466 80.949H-126.855C-137.199 98.6827 -143.193 109.274 -152.634 125.694C-153.209 124.709 -182.355 74.6272 -182.273 74.5451H-160.106L-148.94 93.7567L-152.634 100.16L-163.8 80.949H-171.189C-169.547 83.5762 -154.194 110.341 -152.634 112.886L-136.543 84.9719L-130.549 74.5451ZM-85.394 112.886L-81.6994 106.482L-70.5337 125.694H-63.1447C-64.7867 123.067 -80.3858 96.3839 -81.6994 93.7567L-97.7912 121.671L-103.785 132.098H-125.952C-124.72 130.045 -116.428 115.595 -108.464 101.72C-103.785 93.5925 -98.6122 84.4793 -92.783 74.5451H-85.394L-100.665 100.982L-114.868 125.694H-107.479C-97.3807 107.878 -91.0589 97.3691 -81.6994 80.949C-81.1247 81.9342 -52.2253 132.016 -52.0611 132.098H-74.2283L-85.394 112.886ZM39.2349 107.139L57.6254 74.5451H77.9864V132.098H58.7748V110.587L46.5418 132.098H31.8458L13.209 99.4216V87.3528L35.6225 125.694H42.8473L65.1787 87.3528V125.694H71.5826V80.949H61.32L39.0707 119.372L17.1498 80.949H6.88721V125.694H13.209V113.625L19.6128 124.626V132.098H0.483337V74.5451H20.8443L39.2349 107.139ZM114.85 72C132.091 72 146.13 86.0392 146.13 103.362C146.13 120.686 132.091 134.643 114.85 134.643C97.5264 134.643 83.4871 120.686 83.4871 103.362C83.4871 86.0392 97.5264 72 114.85 72ZM114.85 128.321C128.643 128.321 139.808 117.155 139.808 103.362C139.808 89.5695 128.643 78.3218 114.85 78.3218C100.975 78.3218 89.8089 89.5695 89.8089 103.362C89.8089 117.155 100.975 128.321 114.85 128.321ZM114.85 84.6435C125.112 84.6435 133.486 93.0999 133.486 103.362C133.486 113.625 125.112 121.999 114.85 121.999C104.587 121.999 96.1307 113.625 96.1307 103.362C96.1307 93.0999 104.587 84.6435 114.85 84.6435ZM114.85 115.678C121.664 115.678 127.165 110.177 127.165 103.362C127.165 96.466 121.664 90.9653 114.85 90.9653C107.953 90.9653 102.452 96.466 102.452 103.362C102.452 110.177 107.953 115.678 114.85 115.678ZM150.317 93.7567V74.5451H213.124V93.7567H197.689V87.3528H206.72V80.949H156.721V87.3528H178.56L178.478 125.694H184.882V87.3528H191.285V132.098H172.074V93.7567H150.317ZM249.166 72C266.407 72 280.447 86.0392 280.447 103.362C280.447 120.686 266.407 134.643 249.166 134.643C231.843 134.643 217.804 120.686 217.804 103.362C217.804 86.0392 231.843 72 249.166 72ZM249.166 128.321C262.959 128.321 274.125 117.155 274.125 103.362C274.125 89.5695 262.959 78.3218 249.166 78.3218C235.291 78.3218 224.126 89.5695 224.126 103.362C224.126 117.155 235.291 128.321 249.166 128.321ZM249.166 84.6435C259.429 84.6435 267.803 93.0999 267.803 103.362C267.803 113.625 259.429 121.999 249.166 121.999C238.904 121.999 230.447 113.625 230.447 103.362C230.447 93.0999 238.904 84.6435 249.166 84.6435ZM249.166 115.678C255.981 115.678 261.481 110.177 261.481 103.362C261.481 96.466 255.981 90.9653 249.166 90.9653C242.27 90.9653 236.769 96.466 236.769 103.362C236.769 110.177 242.27 115.678 249.166 115.678ZM349.904 132.098H327.737L320.266 119.208H305.898V132.098H286.768V100.078L333.73 100.16C339.067 100.16 343.336 95.8092 343.336 90.5548C343.336 85.2182 339.067 80.949 333.73 80.949H293.172V87.3528H333.73C335.454 87.4349 336.768 88.8306 336.768 90.5548C336.768 92.2789 335.454 93.6746 333.73 93.7567H333.648H333.566H286.768V74.5451H333.73C342.597 74.5451 349.74 81.6879 349.74 90.5548C349.74 99.3395 342.597 106.564 333.73 106.564L293.172 106.482V125.694H299.576V112.804H323.96C326.587 117.566 331.021 124.873 331.431 125.694H338.82C338.163 124.791 334.387 118.059 331.349 112.804H338.738C341.448 117.484 344.157 122.328 346.374 125.94L349.904 132.098ZM405.322 106.564C372.728 106.564 372.235 106.482 371.825 106.482H371.661C363.45 105.825 357.129 98.8469 357.129 90.5548C357.129 81.6879 364.271 74.5451 373.138 74.5451H407.621C414.517 74.5451 420.1 80.128 420.1 87.1065V93.7567H373.385H373.303H373.22C371.332 93.6746 370.101 92.2789 370.101 90.5548C370.101 88.8306 371.414 87.4349 373.138 87.3528H413.696V87.1886C413.696 83.6583 410.987 80.949 407.456 80.949H373.138C367.884 80.949 363.533 85.2182 363.533 90.5548C363.533 95.4808 367.227 99.4216 371.907 100.078C404.665 100.078 404.993 100.16 405.568 100.16C413.778 100.817 420.1 107.878 420.1 116.088C420.1 124.955 412.957 132.098 404.172 132.098H369.608C362.712 132.098 357.129 126.515 357.129 119.618V112.886H404.172C408.195 113.132 408.195 119.044 404.172 119.29H363.533V119.454C363.533 122.985 366.242 125.694 369.772 125.694H404.172C409.345 125.694 413.778 121.589 413.778 116.088C413.778 111.162 410.084 107.221 405.322 106.564Z" fill="black"/>
</g>
</g>
<defs>
<clipPath id="clip0_16_30">
<rect width="262" height="63" fill="white"/>
</clipPath>
<clipPath id="clip1_16_30">
<rect width="420" height="63" fill="white" transform="translate(0 72)"/>
</clipPath>
</defs>
</svg>
